<svg xmlns="http://www.w3.org/2000/svg" xmlns:xlink="http://www.w3.org/1999/xlink" version="1.1" id="prefix__Ebene_1" x="0px" y="0px" xml:space="preserve" viewBox="93.55 52.09 425.93 141.72" data-testid="brand" class="w-16"><path d="M403.65,116.76h-2.68V95.73h2.68V116.76z M269.51,170.46l7.11,21.03h-2.83l-2-6.41h-7.67l-2.02,6.41h-2.72l7.12-21.03 H269.51z M270.12,179.75c-0.76-2.35-1.43-4.66-2.11-7.09h-0.13c-0.65,2.44-1.33,4.74-2.08,7.09l-1.01,3.2h6.33L270.12,179.75z M274.62,145.52c0,5.05-2.2,6.64-4.99,6.64c-2.74,0-4.88-1.59-4.88-6.64v-12.42h-2.68v12.35c0,6.75,3.26,9.07,7.56,9.07 c4.29,0,7.55-2.32,7.55-9.07v-12.35h-2.56V145.52z M387.7,116.76h2.68V97.99h6.36v-2.26h-15.4v2.26h6.36V116.76z M399.41,154.13 v-18.77h6.36v-2.27h-15.4v2.27h6.36v18.77H399.41z M322.36,114.5h-9.77v-7.65h7.97v-2.26h-7.97v-6.59h9.45v-2.26h-12.12v21.03h12.44 V114.5z M434.17,105.75c0-2.2-0.21-4.44-0.34-6.57h0.13l2.27,4.34l7.61,13.23h2.76V95.73h-2.54v10.88c0,2.2,0.2,4.57,0.34,6.69 h-0.13l-2.27-4.36l-7.61-13.22h-2.76v21.03h2.54V105.75z M293.84,176.66c0,4.43-3.16,6.5-7.76,6.5h-3.46v8.34h-2.68v-21.03h6.01 C290.66,170.46,293.84,172.05,293.84,176.66z M291.17,176.66c0-3.03-1.87-4.02-5.56-4.02h-2.99v8.35h3.12 C289.41,180.98,291.17,179.65,291.17,176.66z M295.73,143.98c0,2.2,0.21,4.57,0.34,6.69h-0.13l-2.27-4.35l-7.61-13.22h-2.76v21.03 h2.54v-11.01c0-2.2-0.2-4.44-0.34-6.57h0.13l2.27,4.34l7.61,13.23h2.76v-21.03h-2.54V143.98z M482.46,114.5h-9.18V95.73h-2.68v21.03 h11.86V114.5z M318.92,151.41h-0.13c-0.78-2.47-1.29-4.47-2.02-6.95l-3.4-11.37h-2.83l6.72,21.03h3.1l6.68-21.03h-2.72l-3.37,11.37 C320.22,146.94,319.7,148.94,318.92,151.41z M348.52,105.75c0-2.2-0.21-4.44-0.34-6.57h0.13l2.27,4.34l7.61,13.23h2.76V95.73h-2.54 v10.88c0,2.2,0.2,4.57,0.34,6.69h-0.13l-2.27-4.36l-7.61-13.22h-2.76v21.03h2.54V105.75z M304.5,154.13h2.68v-21.03h-2.68V154.13z M296.65,116.76h2.68V97.99h6.36v-2.26h-15.4v2.26h6.36V116.76z M273.61,105.75c0-2.2-0.21-4.44-0.34-6.57h0.13l2.27,4.34 l7.61,13.23h2.76V95.73h-2.54v10.88c0,2.2,0.2,4.57,0.34,6.69h-0.13l-2.27-4.36l-7.61-13.22h-2.76v21.03h2.54V105.75z M109.97,52.09 c-9.52,0-16.42,6.13-16.42,14.83c0,8.63,6.9,14.83,16.42,14.83c9.52,0,16.42-6.2,16.42-14.83 C126.39,58.22,119.49,52.09,109.97,52.09z M312.45,176.66c0,4.43-3.17,6.5-7.77,6.5h-3.46v8.34h-2.68v-21.03h6.01 C309.27,170.46,312.45,172.05,312.45,176.66z M309.78,176.66c0-3.03-1.86-4.02-5.56-4.02h-2.99v8.35h3.12 C308.02,180.98,309.78,179.65,309.78,176.66z M95.75,191.5h28.37V95.75H95.75V191.5z M264.84,95.73h-2.68v21.03h2.68V95.73z M205.39,159.12c-5.54,7.54-9.89,10.53-17.02,10.53c-8.19,0-11.89-4.31-11.89-18.09V95.75H148.1v59.44 c0,23.93,8.88,38.62,29.7,38.62c13.06,0,22.07-6.06,30.06-15.6h0.7l2.04,13.28h23.15V95.75h-28.37V159.12z M448.58,143.54 c0,6.74-3.71,10.98-8.99,10.98c-5.28,0-8.99-4.24-8.99-10.98c0-6.74,3.71-10.83,8.99-10.83 C444.87,132.71,448.58,136.81,448.58,143.54z M445.81,143.54c0-5.24-2.47-8.47-6.23-8.47s-6.23,3.23-6.23,8.47s2.47,8.62,6.23,8.62 S445.81,148.78,445.81,143.54z M434.46,181.58h7.97v-2.26h-7.97v-6.59h9.45v-2.26h-12.12v21.03h12.44v-2.27h-9.77V181.58z M461.58,181.35c0,2.2,0.2,4.57,0.34,6.69h-0.13l-2.27-4.36l-7.61-13.22h-2.76v21.03h2.54v-11.01c0-2.2-0.21-4.44-0.34-6.57h0.13 l2.27,4.34l7.61,13.23h2.76v-21.03h-2.54V181.35z M319.83,170.46h-2.68v21.03h11.86v-2.27h-9.18V170.46z M422.88,191.5h2.68v-21.03 h-2.68V191.5z M460.17,95.73l7.12,21.03h-2.83l-2-6.41h-7.67l-2.02,6.41h-2.73l7.12-21.03H460.17z M460.79,105.01 c-0.76-2.35-1.43-4.66-2.11-7.09h-0.13c-0.65,2.44-1.32,4.74-2.08,7.09l-1.01,3.2h6.33L460.79,105.01z M453.56,154.13h2.68v-9.41 h8.02v-2.27h-8.02v-7.09h9.45v-2.27h-12.13V154.13z M515.14,180.28l-3-1.3c-1.65-0.7-3.48-1.46-3.48-3.48 c0-1.88,1.56-3.07,3.92-3.07c1.94,0,3.49,0.76,4.77,1.97l1.42-1.72c-1.48-1.53-3.7-2.6-6.19-2.6c-3.82,0-6.62,2.37-6.62,5.58 c0,3.09,2.3,4.58,4.26,5.42l3.02,1.33c1.99,0.87,3.51,1.55,3.51,3.7c0,2.04-1.64,3.42-4.4,3.42c-2.19,0-4.29-1.04-5.8-2.61 l-1.6,1.84c1.84,1.92,4.4,3.12,7.36,3.12c4.42,0,7.17-2.65,7.17-5.98C519.48,182.77,517.58,181.33,515.14,180.28z M491.79,181.58 h7.97v-2.26h-7.97v-6.59h9.45v-2.26h-12.12v21.03h12.44v-2.27h-9.77V181.58z M416.48,139.03c-0.65,1.55-1.37,3.01-2.1,4.59h-0.13 c-0.73-1.57-1.36-3.04-2.04-4.59l-2.71-5.94h-2.86l6.32,12.88v8.15h2.68v-8.15l6.32-12.88h-2.77L416.48,139.03z M478.4,189.53 c-3.99,0-6.51-3.31-6.51-8.6c0-5.24,2.64-8.49,6.62-8.49c1.78,0,3.17,0.8,4.27,1.98l1.47-1.74c-1.23-1.35-3.23-2.59-5.79-2.59 c-5.34,0-9.33,4.14-9.33,10.92c0,6.83,3.93,10.88,9.17,10.88c2.73,0,4.79-1.1,6.45-3.03l-1.47-1.68 C481.94,188.65,480.41,189.53,478.4,189.53z M426.64,106.17c0,6.74-3.71,10.98-8.99,10.98c-5.28,0-8.99-4.24-8.99-10.98 c0-6.74,3.71-10.82,8.99-10.82C422.93,95.34,426.64,99.44,426.64,106.17z M423.87,106.17c0-5.24-2.47-8.47-6.23-8.47 c-3.76,0-6.23,3.23-6.23,8.47c0,5.24,2.47,8.63,6.23,8.63C421.4,114.79,423.87,111.41,423.87,106.17z M333.2,191.5h2.68v-21.03 h-2.68V191.5z M412.17,189.53c-3.99,0-6.51-3.31-6.51-8.6c0-5.24,2.64-8.49,6.62-8.49c1.77,0,3.16,0.8,4.27,1.98l1.47-1.74 c-1.23-1.35-3.23-2.59-5.78-2.59c-5.34,0-9.33,4.14-9.33,10.92c0,6.83,3.93,10.88,9.16,10.88c2.73,0,4.79-1.1,6.45-3.03l-1.47-1.68 C415.7,188.65,414.18,189.53,412.17,189.53z M344.78,181.58h7.97v-2.26h-7.97v-6.59h9.45v-2.26h-12.12v21.03h12.44v-2.27h-9.77 V181.58z M342.7,151.86h-9.77v-7.65h7.97v-2.27h-7.97v-6.59h9.45v-2.27h-12.12v21.03h12.44V151.86z M333.75,107.87h-3.8v8.89h-2.68 V95.73h6.59c4.28,0,7.36,1.54,7.36,5.92c0,3.28-1.89,5.21-4.74,5.91l5.37,9.21h-3.03L333.75,107.87z M333.48,105.7 c3.27,0,5.07-1.33,5.07-4.05c0-2.76-1.8-3.75-5.07-3.75h-3.53v7.8H333.48z M362.19,154.13h-3.03l-5.06-8.89h-3.8v8.89h-2.68v-21.03 h6.59c4.28,0,7.36,1.54,7.36,5.92c0,3.28-1.88,5.21-4.74,5.91L362.19,154.13z M358.89,139.01c0-2.77-1.8-3.75-5.07-3.75h-3.53v7.8 h3.53C357.09,143.07,358.89,141.74,358.89,139.01z M386.13,133.09h-2.68v21.03h2.68V133.09z M395.19,180.28l-3-1.3 c-1.65-0.7-3.48-1.46-3.48-3.48c0-1.88,1.56-3.07,3.92-3.07c1.94,0,3.49,0.76,4.77,1.97l1.42-1.72c-1.48-1.53-3.7-2.6-6.19-2.6 c-3.82,0-6.62,2.37-6.62,5.58c0,3.09,2.3,4.58,4.26,5.42l3.02,1.33c1.99,0.87,3.51,1.55,3.51,3.7c0,2.04-1.64,3.42-4.4,3.42 c-2.19,0-4.29-1.04-5.8-2.61l-1.6,1.84c1.84,1.92,4.4,3.12,7.36,3.12c4.42,0,7.17-2.65,7.17-5.98 C399.53,182.77,397.63,181.33,395.19,180.28z M374.54,142.91l-3-1.3c-1.65-0.7-3.48-1.45-3.48-3.48c0-1.88,1.56-3.07,3.92-3.07 c1.94,0,3.48,0.76,4.77,1.97l1.42-1.72c-1.48-1.53-3.7-2.61-6.19-2.61c-3.82,0-6.62,2.37-6.62,5.58c0,3.09,2.3,4.58,4.26,5.42 l3.02,1.33c1.98,0.87,3.51,1.55,3.51,3.7c0,2.04-1.64,3.42-4.4,3.42c-2.19,0-4.29-1.03-5.8-2.61l-1.6,1.84 c1.84,1.92,4.4,3.12,7.36,3.12c4.42,0,7.17-2.65,7.17-5.98C378.87,145.41,376.97,143.96,374.54,142.91z M374.53,95.73l7.11,21.03 h-2.83l-2-6.41h-7.67l-2.02,6.41h-2.72l7.12-21.03H374.53z M375.14,105.01c-0.76-2.35-1.43-4.66-2.11-7.09h-0.13 c-0.65,2.44-1.33,4.74-2.08,7.09l-1.01,3.2h6.33L375.14,105.01z M374.66,180.9c0,6.68-3.47,10.59-9.82,10.59h-5.38v-21.03h5.26 C371.19,170.46,374.66,174.22,374.66,180.9z M371.9,180.9c0-5.32-2.45-8.25-7.37-8.25h-2.38v16.64h2.38 C369.44,189.3,371.9,186.22,371.9,180.9z"></path></svg>